<?xml version="1.0" encoding="UTF-8"?>
<svg width="102" height="40" viewBox="0 0 102 40" fill="none" xmlns="http://www.w3.org/2000/svg"><path fillRule="evenodd" clipRule="evenodd" d="M2.74365 6.08863H3.64647C4.49022 6.08863 5.12116 5.92206 5.54022 5.58863C5.95929 5.25519 6.16866 4.76987 6.16866 4.13269C6.16866 3.48987 5.99304 3.01487 5.6421 2.70799C5.29085 2.40112 4.74084 2.24768 3.99147 2.24768H2.74365V6.08863ZM8.93846 4.03563C8.93846 5.42814 8.50346 6.49283 7.63283 7.23033C6.76283 7.96814 5.52533 8.33658 3.92063 8.33658H2.74344V12.9388H0V0H4.13282C5.70251 0 6.89564 0.337813 7.71283 1.01313C8.53002 1.68875 8.93846 2.69626 8.93846 4.03563Z" transform="translate(43.608 13.858)" fill="#0C344B"></path><path fillRule="evenodd" clipRule="evenodd" d="M5.52251 0C5.88845 0 6.1922 0.0265626 6.43408 0.0796877L6.23064 2.61063C6.0122 2.55188 5.74689 2.52219 5.43408 2.52219C4.57251 2.52219 3.90157 2.74344 3.42032 3.18595C2.93969 3.62845 2.69938 4.24814 2.69938 5.0447V10.0803H0V0.185938H2.04438L2.44282 1.84969H2.57532C2.88219 1.29532 3.29657 0.848127 3.81907 0.508751C4.34095 0.169688 4.90876 0 5.52251 0Z" transform="translate(54.296 16.716)" fill="#0C344B"></path><path fillRule="evenodd" clipRule="evenodd" d="M0.114746 13.7707H2.81413V3.87634H0.114746V13.7707ZM0 1.31844C0 0.439376 0.489689 0 1.46907 0C2.44813 0 2.93813 0.439376 2.93813 1.31844C2.93813 1.7375 2.81563 2.06344 2.57094 2.29657C2.32594 2.52969 1.95875 2.64594 1.46907 2.64594C0.489689 2.64594 0 2.20344 0 1.31844Z" transform="translate(62.047 13.026)" fill="#0C344B"></path><path fillRule="evenodd" clipRule="evenodd" d="M7.50502 7.14189C7.50502 8.1569 7.15252 8.92971 6.4472 9.46065C5.7422 9.99159 4.68751 10.2572 3.28345 10.2572C2.56344 10.2572 1.95032 10.2085 1.44282 10.111C0.935315 10.0138 0.460314 9.87065 0.0178125 9.6819V7.45158C0.519376 7.68783 1.08407 7.88533 1.71282 8.04471C2.34094 8.20377 2.89407 8.28346 3.37188 8.28346C4.35126 8.28346 4.84126 8.00033 4.84126 7.43408C4.84126 7.22158 4.77626 7.04908 4.64657 6.91627C4.51657 6.78345 4.29251 6.63314 3.97376 6.4647C3.65532 6.29658 3.23032 6.10064 2.69938 5.87627C1.93844 5.55783 1.37907 5.26283 1.0225 4.99126C0.665314 4.72001 0.405626 4.40876 0.243751 4.05751C0.0812502 3.70657 0 3.27438 0 2.76094C0 1.88188 0.340626 1.20219 1.0225 0.721252C1.70375 0.240313 2.66969 0 3.92063 0C5.11251 0 6.27189 0.259688 7.39877 0.778752L6.5847 2.72563C6.08908 2.51313 5.62564 2.33938 5.19501 2.20344C4.76439 2.06782 4.3247 2.00001 3.87657 2.00001C3.08001 2.00001 2.68157 2.21532 2.68157 2.64594C2.68157 2.88813 2.81032 3.09751 3.06657 3.27438C3.32345 3.45126 3.88532 3.71407 4.75251 4.0622C5.52564 4.37501 6.0922 4.66689 6.45189 4.93814C6.81158 5.2097 7.0772 5.5222 7.24846 5.87627C7.41971 6.23033 7.50502 6.6522 7.50502 7.14189Z" transform="translate(66.86 16.717)" fill="#0C344B"></path><path fillRule="evenodd" clipRule="evenodd" d="M8.85908 10.0803H6.1597V4.30126C6.1597 3.58751 6.04002 3.05188 5.80158 2.69501C5.5622 2.33813 5.18626 2.15938 4.67282 2.15938C3.98282 2.15938 3.48126 2.41313 3.16845 2.92063C2.85563 3.42813 2.69938 4.26282 2.69938 5.42533V10.0803H0V0.185938H2.06219L2.42501 1.45157H2.57563C2.84094 0.99719 3.2247 0.641564 3.72595 0.385001C4.22751 0.128438 4.80282 0 5.45189 0C6.93283 0 7.93564 0.484064 8.46096 1.45157H8.69971C8.96533 0.991252 9.35627 0.634377 9.87252 0.380626C10.3888 0.126875 10.9713 0 11.6203 0C12.7413 0 13.5897 0.287813 14.1647 0.862815C14.74 1.43813 15.0275 2.36001 15.0275 3.62845V10.0803H12.3194V4.30126C12.3194 3.58751 12.1997 3.05188 11.9613 2.69501C11.7219 2.33813 11.346 2.15938 10.8325 2.15938C10.1719 2.15938 9.67784 2.39563 9.35002 2.86751C9.02283 3.3397 8.85908 4.08876 8.85908 5.11532V10.0803Z" transform="translate(76.2 16.716)" fill="#0C344B"></path><path fillRule="evenodd" clipRule="evenodd" d="M6.1419 5.51392L5.09753 5.54923C4.31284 5.57298 3.72877 5.71454 3.34533 5.97423C2.96158 6.23392 2.77002 6.62892 2.77002 7.16017C2.77002 7.92111 3.20658 8.30173 4.07971 8.30173C4.70502 8.30173 5.20534 8.12173 5.57971 7.76173C5.9544 7.40205 6.1419 6.92423 6.1419 6.32798V5.51392ZM6.93845 10.0981L6.41627 8.75283H6.34533C5.89095 9.32534 5.42345 9.7219 4.94251 9.94315C4.46189 10.1644 3.83501 10.275 3.0622 10.275C2.11188 10.275 1.36438 10.0038 0.81844 9.46096C0.272813 8.91815 0 8.14533 0 7.1422C0 6.0922 0.367188 5.31783 1.10157 4.81907C1.83657 4.32064 2.94407 4.0447 4.42501 3.99157L6.14189 3.93845V3.5047C6.14189 2.50188 5.62845 2.00032 4.60189 2.00032C3.81126 2.00032 2.88188 2.23907 1.81407 2.71719L0.920315 0.894065C2.05907 0.298126 3.32188 0 4.70814 0C6.03564 0 7.05345 0.289376 7.76158 0.867502C8.4694 1.44563 8.82346 2.32469 8.82346 3.5047V10.0981H6.93845Z" transform="translate(92.94 16.699)" fill="#0C344B"></path><path fillRule="evenodd" clipRule="evenodd" d="M29.8283 31.7276L11.866 37.0401C11.3173 37.2026 10.7913 36.728 10.9067 36.1745L17.3235 5.4435C17.4436 4.86881 18.2379 4.77756 18.4886 5.30975L30.3698 30.5398C30.5939 31.0158 30.3383 31.577 29.8283 31.7276ZM32.9083 30.4747L19.1514 1.26147V1.26084C18.8064 0.53053 18.0864 0.0486535 17.2704 0.0039659C16.4333 -0.0447842 15.6832 0.358967 15.2601 1.04616L0.340086 25.2118C-0.122103 25.965 -0.11304 26.8937 0.366336 27.6378L7.65948 38.9353C8.09417 39.6097 8.84729 40 9.63011 40C9.85198 40 10.0751 39.9688 10.2945 39.9038L31.4645 33.6425C32.113 33.4506 32.6433 32.9919 32.9208 32.3837C33.1974 31.7753 33.193 31.079 32.9083 30.4747Z" fill="#0C344B"></path></svg>