<?xml version="1.0" encoding="UTF-8"?>
<svg width="900px" height="450px" viewBox="0 0 900 450" version="1.1" xmlns="http://www.w3.org/2000/svg" xmlns:xlink="http://www.w3.org/1999/xlink">
    <!-- Generator: Sketch 64 (93537) - https://sketch.com -->
    <title>ProductHunt cover</title>
    <desc>Created with Sketch.</desc>
    <defs>
        <rect id="path-1" x="2.72188559e-14" y="0" width="131.941959" height="32" rx="10"></rect>
        <filter x="-0.4%" y="-4.7%" width="100.8%" height="106.2%" filterUnits="objectBoundingBox" id="filter-2">
            <feOffset dx="0" dy="-1" in="SourceAlpha" result="shadowOffsetOuter1"></feOffset>
            <feColorMatrix values="0 0 0 0 0.105882353   0 0 0 0 0.121568627   0 0 0 0 0.137254902  0 0 0 0.12 0" type="matrix" in="shadowOffsetOuter1"></feColorMatrix>
        </filter>
        <filter x="-4.2%" y="-20.3%" width="108.3%" height="137.5%" filterUnits="objectBoundingBox" id="filter-3">
            <feGaussianBlur stdDeviation="1.5" in="SourceAlpha" result="shadowBlurInner1"></feGaussianBlur>
            <feOffset dx="0" dy="-8" in="shadowBlurInner1" result="shadowOffsetInner1"></feOffset>
            <feComposite in="shadowOffsetInner1" in2="SourceAlpha" operator="arithmetic" k2="-1" k3="1" result="shadowInnerInner1"></feComposite>
            <feColorMatrix values="0 0 0 0 0.105882353   0 0 0 0 0.121568627   0 0 0 0 0.137254902  0 0 0 0.5 0" type="matrix" in="shadowInnerInner1"></feColorMatrix>
        </filter>
    </defs>
    <g id="ProductHunt-cover" stroke="none" stroke-width="1" fill="none" fill-rule="evenodd">
        <rect id="Rectangle" fill="#F9FAFB" x="0" y="0" width="900" height="450"></rect>
        <text id="and-more." font-family="HelveticaNeue-Bold, Helvetica Neue" font-size="85" font-weight="bold" line-spacing="80" fill="#000000">
            <tspan x="237" y="259">and more.</tspan>
        </text>
        <g id="LabelSync-Logo" transform="translate(721.000000, 378.000000)">
            <g id="Logo">
                <g id="Rectangle">
                    <use fill="black" fill-opacity="1" filter="url(#filter-2)" xlink:href="#path-1"></use>
                    <use fill="#000000" fill-rule="evenodd" xlink:href="#path-1"></use>
                    <use fill="black" fill-opacity="1" filter="url(#filter-3)" xlink:href="#path-1"></use>
                </g>
                <path d="M12.4498186,22.72 L12.4498186,5.584 L9.05006046,5.584 L9.05006046,22.72 L12.4498186,22.72 Z M18.8183797,23.032 C19.5845224,23.032 20.3347037,22.92 21.0689238,22.696 C21.8031439,22.472 22.4415961,22.08 22.9842805,21.52 C23.0002418,21.728 23.0281741,21.932 23.0680774,22.132 C23.1079807,22.332 23.1598549,22.528 23.2237001,22.72 L23.2237001,22.72 L26.6713422,22.72 C26.5117291,22.464 26.4,22.08 26.3361548,21.568 C26.2723096,21.056 26.2403869,20.52 26.2403869,19.96 L26.2403869,19.96 L26.2403869,13.504 C26.2403869,12.752 26.0727932,12.148 25.7376058,11.692 C25.4024184,11.236 24.9714631,10.88 24.44474,10.624 C23.9180169,10.368 23.3354293,10.196 22.696977,10.108 C22.0585248,10.02 21.4280532,9.976 20.8055623,9.976 C20.1192261,9.976 19.4368803,10.044 18.7585248,10.18 C18.0801693,10.316 17.4696493,10.544 16.9269649,10.864 C16.3842805,11.184 15.937364,11.608 15.5862152,12.136 C15.2350665,12.664 15.0355502,13.328 14.9876663,14.128 L14.9876663,14.128 L18.3874244,14.128 C18.4512696,13.456 18.6747279,12.976 19.0577993,12.688 C19.4408706,12.4 19.9675937,12.256 20.6379686,12.256 C20.9412334,12.256 21.2245466,12.276 21.4879081,12.316 C21.7512696,12.356 21.9827086,12.436 22.1822249,12.556 C22.3817412,12.676 22.5413543,12.844 22.6610641,13.06 C22.7807739,13.276 22.8406288,13.568 22.8406288,13.936 C22.8565901,14.288 22.7528416,14.556 22.5293833,14.74 C22.305925,14.924 22.0026602,15.064 21.6195889,15.16 C21.2365175,15.256 20.7975816,15.328 20.3027811,15.376 C19.8079807,15.424 19.3051995,15.488 18.7944377,15.568 C18.2836759,15.648 17.7769045,15.756 17.2741233,15.892 C16.7713422,16.028 16.3244256,16.232 15.9333736,16.504 C15.5423216,16.776 15.2230955,17.14 14.9756953,17.596 C14.728295,18.052 14.6045949,18.632 14.6045949,19.336 C14.6045949,19.976 14.7123337,20.528 14.9278114,20.992 C15.143289,21.456 15.4425635,21.84 15.8256348,22.144 C16.2087062,22.448 16.6556227,22.672 17.1663845,22.816 C17.6771463,22.96 18.2278114,23.032 18.8183797,23.032 Z M20.0873035,20.776 C19.8159613,20.776 19.5525998,20.752 19.2972189,20.704 C19.041838,20.656 18.8183797,20.572 18.626844,20.452 C18.4353083,20.332 18.2836759,20.168 18.1719468,19.96 C18.0602177,19.752 18.0043531,19.496 18.0043531,19.192 C18.0043531,18.872 18.0602177,18.608 18.1719468,18.4 C18.2836759,18.192 18.431318,18.02 18.614873,17.884 C18.7984281,17.748 19.0139057,17.64 19.2613059,17.56 C19.5087062,17.48 19.7600967,17.416 20.0154776,17.368 C20.2868198,17.32 20.558162,17.28 20.8295042,17.248 C21.1008464,17.216 21.3602177,17.176 21.6076179,17.128 C21.8550181,17.08 22.0864571,17.02 22.3019347,16.948 C22.5174123,16.876 22.696977,16.776 22.8406288,16.648 L22.8406288,16.648 L22.8406288,17.92 C22.8406288,18.112 22.8206771,18.368 22.7807739,18.688 C22.7408706,19.008 22.6331318,19.324 22.4575574,19.636 C22.2819831,19.948 22.0106409,20.216 21.6435308,20.44 C21.2764208,20.664 20.7576784,20.776 20.0873035,20.776 Z M36.2241838,23.032 C36.8466747,23.032 37.461185,22.904 38.0677146,22.648 C38.6742443,22.392 39.220919,22 39.7077388,21.472 C40.1945586,20.944 40.589601,20.268 40.8928658,19.444 C41.1961306,18.62 41.347763,17.64 41.347763,16.504 C41.347763,15.368 41.1961306,14.388 40.8928658,13.564 C40.589601,12.74 40.1945586,12.064 39.7077388,11.536 C39.220919,11.008 38.6742443,10.616 38.0677146,10.36 C37.461185,10.104 36.8466747,9.976 36.2241838,9.976 C35.4580411,9.976 34.7198307,10.124 34.0095526,10.42 C33.2992745,10.716 32.7366385,11.184 32.3216445,11.824 L32.2737606,11.824 L32.2737606,5.584 L28.8740024,5.584 L28.8740024,22.72 L32.1061669,22.72 L32.1061669,21.136 L32.1540508,21.136 C32.5211608,21.824 33.0638452,22.312 33.782104,22.6 C34.5003628,22.888 35.3143894,23.032 36.2241838,23.032 Z M35.0510278,20.488 C34.5562273,20.488 34.1252721,20.38 33.758162,20.164 C33.391052,19.948 33.0877872,19.656 32.8483676,19.288 C32.608948,18.92 32.4333736,18.496 32.3216445,18.016 C32.2099154,17.536 32.1540508,17.04 32.1540508,16.528 C32.1540508,16 32.2099154,15.496 32.3216445,15.016 C32.4333736,14.536 32.608948,14.112 32.8483676,13.744 C33.0877872,13.376 33.391052,13.084 33.758162,12.868 C34.1252721,12.652 34.5562273,12.544 35.0510278,12.544 C35.5617896,12.544 35.9967352,12.652 36.3558646,12.868 C36.714994,13.084 37.0142684,13.376 37.253688,13.744 C37.4931076,14.112 37.668682,14.536 37.7804111,15.016 C37.8921403,15.496 37.9480048,16 37.9480048,16.528 C37.9480048,17.04 37.8921403,17.536 37.7804111,18.016 C37.668682,18.496 37.4931076,18.92 37.253688,19.288 C37.0142684,19.656 36.714994,19.948 36.3558646,20.164 C35.9967352,20.38 35.5617896,20.488 35.0510278,20.488 Z M49.2246675,23.032 C50.6292624,23.032 51.8263603,22.712 52.8159613,22.072 C53.8055623,21.432 54.5397823,20.368 55.0186215,18.88 L52.0258767,18.88 C51.9141475,19.264 51.6108827,19.628 51.1160822,19.972 C50.6212817,20.316 50.0307134,20.488 49.3443773,20.488 C48.3866989,20.488 47.6524788,20.24 47.141717,19.744 C46.6309553,19.248 46.3516324,18.448 46.3037485,17.344 L55.2340992,17.344 C55.2979444,16.384 55.2181378,15.464 54.9946796,14.584 C54.7712213,13.704 54.4081016,12.92 53.9053204,12.232 C53.4025393,11.544 52.7600967,10.996 51.9779927,10.588 C51.1958888,10.18 50.2781137,9.976 49.2246675,9.976 C48.2829504,9.976 47.4250302,10.144 46.6509069,10.48 C45.8767836,10.816 45.210399,11.276 44.6517533,11.86 C44.0931076,12.444 43.6621524,13.136 43.3588875,13.936 C43.0556227,14.736 42.9039903,15.6 42.9039903,16.528 C42.9039903,17.488 43.0516324,18.368 43.3469166,19.168 C43.6422007,19.968 44.061185,20.656 44.6038694,21.232 C45.1465538,21.808 45.808948,22.252 46.591052,22.564 C47.373156,22.876 48.2510278,23.032 49.2246675,23.032 Z M51.834341,15.184 L46.3037485,15.184 C46.3197098,14.944 46.371584,14.672 46.4593712,14.368 C46.5471584,14.064 46.6987908,13.776 46.9142684,13.504 C47.1297461,13.232 47.4170496,13.004 47.776179,12.82 C48.1353083,12.636 48.5862152,12.544 49.1288996,12.544 C49.9588875,12.544 50.5773881,12.768 50.9844015,13.216 C51.3914148,13.664 51.6747279,14.32 51.834341,15.184 Z M60.7407497,22.72 L60.7407497,5.584 L57.3409915,5.584 L57.3409915,22.72 L60.7407497,22.72 Z M64.5954051,23.104 L71.2752116,5.176 L68.5458283,5.176 L61.8899637,23.104 L64.5954051,23.104 Z M77.5240629,23.032 C78.2263603,23.032 78.9166868,22.964 79.5950423,22.828 C80.2733978,22.692 80.8759371,22.456 81.4026602,22.12 C81.9293833,21.784 82.3563482,21.34 82.683555,20.788 C83.0107618,20.236 83.1743652,19.552 83.1743652,18.736 C83.1743652,18.16 83.062636,17.676 82.8391778,17.284 C82.6157195,16.892 82.3204353,16.564 81.9533253,16.3 C81.5862152,16.036 81.167231,15.824 80.6963724,15.664 C80.2255139,15.504 79.7426844,15.368 79.2478839,15.256 C78.7690447,15.144 78.2981862,15.04 77.8353083,14.944 C77.3724305,14.848 76.9614268,14.74 76.6022975,14.62 C76.2431681,14.5 75.9518742,14.344 75.728416,14.152 C75.5049577,13.96 75.3932285,13.712 75.3932285,13.408 C75.3932285,13.152 75.4570738,12.948 75.5847642,12.796 C75.7124547,12.644 75.8680774,12.528 76.0516324,12.448 C76.2351874,12.368 76.4386941,12.316 76.6621524,12.292 C76.8856106,12.268 77.0931076,12.256 77.2846433,12.256 C77.8911729,12.256 78.417896,12.372 78.8648126,12.604 C79.3117291,12.836 79.5591294,13.28 79.6070133,13.936 L82.8391778,13.936 C82.7753325,13.168 82.5798065,12.532 82.2525998,12.028 C81.925393,11.524 81.5143894,11.12 81.0195889,10.816 C80.5247884,10.512 79.9621524,10.296 79.3316808,10.168 C78.7012092,10.04 78.050786,9.976 77.3804111,9.976 C76.7100363,9.976 76.0556227,10.036 75.4171705,10.156 C74.7787183,10.276 74.2041112,10.484 73.6933495,10.78 C73.1825877,11.076 72.771584,11.48 72.4603386,11.992 C72.1490931,12.504 71.9934704,13.16 71.9934704,13.96 C71.9934704,14.504 72.1051995,14.964 72.3286578,15.34 C72.5521161,15.716 72.8474002,16.028 73.2145103,16.276 C73.5816203,16.524 74.0006046,16.724 74.4714631,16.876 C74.9423216,17.028 75.4251511,17.16 75.9199516,17.272 C77.1330109,17.528 78.0787183,17.784 78.7570738,18.04 C79.4354293,18.296 79.774607,18.68 79.774607,19.192 C79.774607,19.496 79.7027811,19.748 79.5591294,19.948 C79.4154776,20.148 79.2359129,20.308 79.0204353,20.428 C78.8049577,20.548 78.5655381,20.636 78.3021765,20.692 C78.038815,20.748 77.7874244,20.776 77.5480048,20.776 C77.2128174,20.776 76.889601,20.736 76.5783555,20.656 C76.26711,20.576 75.9917775,20.452 75.7523579,20.284 C75.5129383,20.116 75.3174123,19.9 75.1657799,19.636 C75.0141475,19.372 74.9383313,19.056 74.9383313,18.688 L71.7061669,18.688 C71.7380895,19.52 71.9256348,20.212 72.2688029,20.764 C72.611971,21.316 73.0509069,21.76 73.5856106,22.096 C74.1203144,22.432 74.7308343,22.672 75.4171705,22.816 C76.1035067,22.96 76.8058041,23.032 77.5240629,23.032 Z M87.0050786,27.064 C88.1702539,27.064 89.0800484,26.848 89.7344619,26.416 C90.3888755,25.984 90.8996372,25.264 91.2667473,24.256 L96.4382104,10.312 L92.9187424,10.312 L90.2133011,18.808 L90.1654172,18.808 L87.364208,10.312 L83.7489722,10.312 L88.0824667,21.952 C88.1782346,22.192 88.2261185,22.448 88.2261185,22.72 C88.2261185,23.088 88.1183797,23.424 87.9029021,23.728 C87.6874244,24.032 87.3562273,24.208 86.9093108,24.256 C86.5741233,24.272 86.2389359,24.264 85.9037485,24.232 C85.5685611,24.2 85.2413543,24.168 84.9221282,24.136 L84.9221282,26.944 C85.2732769,26.976 85.6204353,27.004 85.9636034,27.028 C86.3067715,27.052 86.6539299,27.064 87.0050786,27.064 Z M100.987183,22.72 L100.987183,16.216 C100.987183,14.952 101.19468,14.044 101.609674,13.492 C102.024667,12.94 102.695042,12.664 103.620798,12.664 C104.434825,12.664 105.001451,12.916 105.320677,13.42 C105.639903,13.924 105.799516,14.688 105.799516,15.712 L105.799516,22.72 L109.199274,22.72 L109.199274,15.088 C109.199274,14.32 109.131439,13.62 108.995768,12.988 C108.860097,12.356 108.624667,11.82 108.28948,11.38 C107.954293,10.94 107.495405,10.596 106.912817,10.348 C106.33023,10.1 105.584039,9.976 104.674244,9.976 C103.955985,9.976 103.253688,10.14 102.567352,10.468 C101.881016,10.796 101.32237,11.32 100.891415,12.04 L100.819589,12.04 L100.819589,10.312 L97.5874244,10.312 L97.5874244,22.72 L100.987183,22.72 Z M117.650786,23.032 C119.2948,23.032 120.643531,22.6 121.696977,21.736 C122.750423,20.872 123.388875,19.616 123.612334,17.968 L120.332285,17.968 C120.220556,18.736 119.945224,19.348 119.506288,19.804 C119.067352,20.26 118.440871,20.488 117.626844,20.488 C117.100121,20.488 116.653204,20.368 116.286094,20.128 C115.918984,19.888 115.62769,19.58 115.412213,19.204 C115.196735,18.828 115.041112,18.408 114.945345,17.944 C114.849577,17.48 114.801693,17.024 114.801693,16.576 C114.801693,16.112 114.849577,15.644 114.945345,15.172 C115.041112,14.7 115.204716,14.268 115.436155,13.876 C115.667594,13.484 115.966868,13.164 116.333978,12.916 C116.701088,12.668 117.155985,12.544 117.69867,12.544 C119.151149,12.544 119.989117,13.256 120.212576,14.68 L123.540508,14.68 C123.492624,13.88 123.301088,13.188 122.965901,12.604 C122.630713,12.02 122.195768,11.532 121.661064,11.14 C121.12636,10.748 120.519831,10.456 119.841475,10.264 C119.16312,10.072 118.456832,9.976 117.722612,9.976 C116.71705,9.976 115.823216,10.144 115.041112,10.48 C114.259008,10.816 113.596614,11.284 113.05393,11.884 C112.511245,12.484 112.100242,13.196 111.820919,14.02 C111.541596,14.844 111.401935,15.736 111.401935,16.696 C111.401935,17.624 111.553567,18.476 111.856832,19.252 C112.160097,20.028 112.583071,20.696 113.125756,21.256 C113.66844,21.816 114.326844,22.252 115.100967,22.564 C115.875091,22.876 116.72503,23.032 117.650786,23.032 Z" id="label/sync" fill="#FFFFFF" fill-rule="nonzero"></path>
            </g>
        </g>
    </g>
</svg>