<?xml version="1.0" encoding="UTF-8"?>
<svg width="900px" height="450px" viewBox="0 0 900 450" version="1.1" xmlns="http://www.w3.org/2000/svg" xmlns:xlink="http://www.w3.org/1999/xlink">
    <!-- Generator: Sketch 64 (93537) - https://sketch.com -->
    <title>ProductHunt cover Copy</title>
    <desc>Created with Sketch.</desc>
    <defs>
        <path d="M35.4110804,75.4379453 C38.877747,75.4379453 42.3110804,74.7212786 45.7110804,73.2879453 C49.1110804,71.854612 52.2110804,69.3379453 55.0110804,65.7379453 L56.6110804,73.8379453 L66.6110804,73.8379453 L66.6110804,35.2379453 L36.6110804,35.2379453 L36.6110804,46.9379453 L52.4110804,46.9379453 C51.9444137,51.9379453 50.2944137,55.754612 47.4610804,58.3879453 C44.627747,61.0212786 40.6110804,62.3379453 35.4110804,62.3379453 C31.877747,62.3379453 28.877747,61.654612 26.4110804,60.2879453 C23.9444137,58.9212786 21.9444137,57.104612 20.4110804,54.8379453 C18.877747,52.5712786 17.7610804,50.0212786 17.0610804,47.1879453 C16.3610804,44.354612 16.0110804,41.4379453 16.0110804,38.4379453 C16.0110804,35.304612 16.3610804,32.2712786 17.0610804,29.3379453 C17.7610804,26.404612 18.877747,23.7879453 20.4110804,21.4879453 C21.9444137,19.1879453 23.9444137,17.354612 26.4110804,15.9879453 C28.877747,14.6212786 31.877747,13.9379453 35.4110804,13.9379453 C39.2110804,13.9379453 42.4444137,14.9379453 45.1110804,16.9379453 C47.777747,18.9379453 49.577747,21.9379453 50.5110804,25.9379453 L65.5110804,25.9379453 C65.1110804,21.8712786 64.0110804,18.2712786 62.2110804,15.1379453 C60.4110804,12.004612 58.127747,9.37127865 55.3610804,7.23794532 C52.5944137,5.10461198 49.4944137,3.48794532 46.0610804,2.38794532 C42.627747,1.28794532 39.077747,0.737945317 35.4110804,0.737945317 C29.9444137,0.737945317 25.027747,1.70461198 20.6610804,3.63794532 C16.2944137,5.57127865 12.6110804,8.23794532 9.61108037,11.6379453 C6.61108037,15.0379453 4.31108037,19.0212786 2.71108037,23.5879453 C1.11108037,28.154612 0.311080369,33.104612 0.311080369,38.4379453 C0.311080369,43.6379453 1.11108037,48.4879453 2.71108037,52.9879453 C4.31108037,57.4879453 6.61108037,61.404612 9.61108037,64.7379453 C12.6110804,68.0712786 16.2944137,70.6879453 20.6610804,72.5879453 C25.027747,74.4879453 29.9444137,75.4379453 35.4110804,75.4379453 Z M92.4110804,14.1379453 L92.4110804,2.43794532 L78.2110804,2.43794532 L78.2110804,14.1379453 L92.4110804,14.1379453 Z M92.4110804,73.8379453 L92.4110804,22.1379453 L78.2110804,22.1379453 L78.2110804,73.8379453 L92.4110804,73.8379453 Z M123.71108,74.3379453 C125.11108,74.3379453 126.544414,74.304612 128.01108,74.2379453 C129.477747,74.1712786 130.81108,74.0379453 132.01108,73.8379453 L132.01108,62.8379453 C131.344414,62.9712786 130.644414,63.0712786 129.91108,63.1379453 C129.177747,63.204612 128.41108,63.2379453 127.61108,63.2379453 C125.21108,63.2379453 123.61108,62.8379453 122.81108,62.0379453 C122.01108,61.2379453 121.61108,59.6379453 121.61108,57.2379453 L121.61108,31.6379453 L132.01108,31.6379453 L132.01108,22.1379453 L121.61108,22.1379453 L121.61108,6.63794532 L107.41108,6.63794532 L107.41108,22.1379453 L98.8110804,22.1379453 L98.8110804,31.6379453 L107.41108,31.6379453 L107.41108,62.1379453 C107.41108,64.7379453 107.844414,66.8379453 108.71108,68.4379453 C109.577747,70.0379453 110.76108,71.2712786 112.26108,72.1379453 C113.76108,73.004612 115.494414,73.5879453 117.46108,73.8879453 C119.427747,74.1879453 121.51108,74.3379453 123.71108,74.3379453 Z M156.01108,73.8379453 L156.01108,43.0379453 L184.91108,43.0379453 L184.91108,73.8379453 L200.61108,73.8379453 L200.61108,2.43794532 L184.91108,2.43794532 L184.91108,29.8379453 L156.01108,29.8379453 L156.01108,2.43794532 L140.31108,2.43794532 L140.31108,73.8379453 L156.01108,73.8379453 Z M231.81108,75.1379453 C234.81108,75.1379453 237.744414,74.4712786 240.61108,73.1379453 C243.477747,71.804612 245.81108,69.6379453 247.61108,66.6379453 L247.91108,66.6379453 L247.91108,73.8379453 L261.41108,73.8379453 L261.41108,22.1379453 L247.21108,22.1379453 L247.21108,49.2379453 C247.21108,54.504612 246.344414,58.2879453 244.61108,60.5879453 C242.877747,62.8879453 240.077747,64.0379453 236.21108,64.0379453 C232.81108,64.0379453 230.444414,62.9879453 229.11108,60.8879453 C227.777747,58.7879453 227.11108,55.604612 227.11108,51.3379453 L227.11108,22.1379453 L212.91108,22.1379453 L212.91108,53.9379453 C212.91108,57.1379453 213.194414,60.054612 213.76108,62.6879453 C214.327747,65.3212786 215.31108,67.554612 216.71108,69.3879453 C218.11108,71.2212786 220.027747,72.6379453 222.46108,73.6379453 C224.894414,74.6379453 228.01108,75.1379453 231.81108,75.1379453 Z M302.91108,75.1379453 C305.51108,75.1379453 308.077747,74.604612 310.61108,73.5379453 C313.144414,72.4712786 315.427747,70.8379453 317.46108,68.6379453 C319.494414,66.4379453 321.144414,63.6212786 322.41108,60.1879453 C323.677747,56.754612 324.31108,52.6712786 324.31108,47.9379453 C324.31108,43.204612 323.677747,39.1212786 322.41108,35.6879453 C321.144414,32.254612 319.494414,29.4379453 317.46108,27.2379453 C315.427747,25.0379453 313.144414,23.404612 310.61108,22.3379453 C308.077747,21.2712786 305.51108,20.7379453 302.91108,20.7379453 C299.71108,20.7379453 296.627747,21.354612 293.66108,22.5879453 C290.694414,23.8212786 288.344414,25.7712786 286.61108,28.4379453 L286.41108,28.4379453 L286.41108,2.43794532 L272.21108,2.43794532 L272.21108,73.8379453 L285.71108,73.8379453 L285.71108,67.2379453 L285.91108,67.2379453 C287.444414,70.104612 289.71108,72.1379453 292.71108,73.3379453 C295.71108,74.5379453 299.11108,75.1379453 302.91108,75.1379453 Z M298.01108,64.5379453 C295.944414,64.5379453 294.144414,64.0879453 292.61108,63.1879453 C291.077747,62.2879453 289.81108,61.0712786 288.81108,59.5379453 C287.81108,58.004612 287.077747,56.2379453 286.61108,54.2379453 C286.144414,52.2379453 285.91108,50.1712786 285.91108,48.0379453 C285.91108,45.8379453 286.144414,43.7379453 286.61108,41.7379453 C287.077747,39.7379453 287.81108,37.9712786 288.81108,36.4379453 C289.81108,34.904612 291.077747,33.6879453 292.61108,32.7879453 C294.144414,31.8879453 295.944414,31.4379453 298.01108,31.4379453 C300.144414,31.4379453 301.96108,31.8879453 303.46108,32.7879453 C304.96108,33.6879453 306.21108,34.904612 307.21108,36.4379453 C308.21108,37.9712786 308.944414,39.7379453 309.41108,41.7379453 C309.877747,43.7379453 310.11108,45.8379453 310.11108,48.0379453 C310.11108,50.1712786 309.877747,52.2379453 309.41108,54.2379453 C308.944414,56.2379453 308.21108,58.004612 307.21108,59.5379453 C306.21108,61.0712786 304.96108,62.2879453 303.46108,63.1879453 C301.96108,64.0879453 300.144414,64.5379453 298.01108,64.5379453 Z M53.9110804,193.837945 L53.9110804,180.637945 L19.1110804,180.637945 L19.1110804,122.437945 L3.41108037,122.437945 L3.41108037,193.837945 L53.9110804,193.837945 Z M76.6110804,195.137945 C79.8110804,195.137945 82.9444137,194.671279 86.0110804,193.737945 C89.077747,192.804612 91.7444137,191.171279 94.0110804,188.837945 C94.077747,189.704612 94.1944137,190.554612 94.3610804,191.387945 C94.527747,192.221279 94.7444137,193.037945 95.0110804,193.837945 L95.0110804,193.837945 L109.41108,193.837945 C108.744414,192.771279 108.277747,191.171279 108.01108,189.037945 C107.744414,186.904612 107.61108,184.671279 107.61108,182.337945 L107.61108,182.337945 L107.61108,155.437945 C107.61108,152.304612 106.91108,149.787945 105.51108,147.887945 C104.11108,145.987945 102.31108,144.504612 100.11108,143.437945 C97.9110804,142.371279 95.477747,141.654612 92.8110804,141.287945 C90.1444137,140.921279 87.5110804,140.737945 84.9110804,140.737945 C82.0444137,140.737945 79.1944137,141.021279 76.3610804,141.587945 C73.527747,142.154612 70.977747,143.104612 68.7110804,144.437945 C66.4444137,145.771279 64.577747,147.537945 63.1110804,149.737945 C61.6444137,151.937945 60.8110804,154.704612 60.6110804,158.037945 L60.6110804,158.037945 L74.8110804,158.037945 C75.077747,155.237945 76.0110804,153.237945 77.6110804,152.037945 C79.2110804,150.837945 81.4110804,150.237945 84.2110804,150.237945 C85.477747,150.237945 86.6610804,150.321279 87.7610804,150.487945 C88.8610804,150.654612 89.827747,150.987945 90.6610804,151.487945 C91.4944137,151.987945 92.1610804,152.687945 92.6610804,153.587945 C93.1610804,154.487945 93.4110804,155.704612 93.4110804,157.237945 C93.477747,158.704612 93.0444137,159.821279 92.1110804,160.587945 C91.177747,161.354612 89.9110804,161.937945 88.3110804,162.337945 C86.7110804,162.737945 84.877747,163.037945 82.8110804,163.237945 C80.7444137,163.437945 78.6444137,163.704612 76.5110804,164.037945 C74.377747,164.371279 72.2610804,164.821279 70.1610804,165.387945 C68.0610804,165.954612 66.1944137,166.804612 64.5610804,167.937945 C62.927747,169.071279 61.5944137,170.587945 60.5610804,172.487945 C59.527747,174.387945 59.0110804,176.804612 59.0110804,179.737945 C59.0110804,182.404612 59.4610804,184.704612 60.3610804,186.637945 C61.2610804,188.571279 62.5110804,190.171279 64.1110804,191.437945 C65.7110804,192.704612 67.577747,193.637945 69.7110804,194.237945 C71.8444137,194.837945 74.1444137,195.137945 76.6110804,195.137945 Z M81.9110804,185.737945 C80.777747,185.737945 79.677747,185.637945 78.6110804,185.437945 C77.5444137,185.237945 76.6110804,184.887945 75.8110804,184.387945 C75.0110804,183.887945 74.377747,183.204612 73.9110804,182.337945 C73.4444137,181.471279 73.2110804,180.404612 73.2110804,179.137945 C73.2110804,177.804612 73.4444137,176.704612 73.9110804,175.837945 C74.377747,174.971279 74.9944137,174.254612 75.7610804,173.687945 C76.527747,173.121279 77.427747,172.671279 78.4610804,172.337945 C79.4944137,172.004612 80.5444137,171.737945 81.6110804,171.537945 C82.7444137,171.337945 83.877747,171.171279 85.0110804,171.037945 C86.1444137,170.904612 87.227747,170.737945 88.2610804,170.537945 C89.2944137,170.337945 90.2610804,170.087945 91.1610804,169.787945 C92.0610804,169.487945 92.8110804,169.071279 93.4110804,168.537945 L93.4110804,168.537945 L93.4110804,173.837945 C93.4110804,174.637945 93.327747,175.704612 93.1610804,177.037945 C92.9944137,178.371279 92.5444137,179.687945 91.8110804,180.987945 C91.077747,182.287945 89.9444137,183.404612 88.4110804,184.337945 C86.877747,185.271279 84.7110804,185.737945 81.9110804,185.737945 Z M149.31108,195.137945 C151.91108,195.137945 154.477747,194.604612 157.01108,193.537945 C159.544414,192.471279 161.827747,190.837945 163.86108,188.637945 C165.894414,186.437945 167.544414,183.621279 168.81108,180.187945 C170.077747,176.754612 170.71108,172.671279 170.71108,167.937945 C170.71108,163.204612 170.077747,159.121279 168.81108,155.687945 C167.544414,152.254612 165.894414,149.437945 163.86108,147.237945 C161.827747,145.037945 159.544414,143.404612 157.01108,142.337945 C154.477747,141.271279 151.91108,140.737945 149.31108,140.737945 C146.11108,140.737945 143.027747,141.354612 140.06108,142.587945 C137.094414,143.821279 134.744414,145.771279 133.01108,148.437945 L132.81108,148.437945 L132.81108,122.437945 L118.61108,122.437945 L118.61108,193.837945 L132.11108,193.837945 L132.11108,187.237945 L132.31108,187.237945 C133.844414,190.104612 136.11108,192.137945 139.11108,193.337945 C142.11108,194.537945 145.51108,195.137945 149.31108,195.137945 Z M144.41108,184.537945 C142.344414,184.537945 140.544414,184.087945 139.01108,183.187945 C137.477747,182.287945 136.21108,181.071279 135.21108,179.537945 C134.21108,178.004612 133.477747,176.237945 133.01108,174.237945 C132.544414,172.237945 132.31108,170.171279 132.31108,168.037945 C132.31108,165.837945 132.544414,163.737945 133.01108,161.737945 C133.477747,159.737945 134.21108,157.971279 135.21108,156.437945 C136.21108,154.904612 137.477747,153.687945 139.01108,152.787945 C140.544414,151.887945 142.344414,151.437945 144.41108,151.437945 C146.544414,151.437945 148.36108,151.887945 149.86108,152.787945 C151.36108,153.687945 152.61108,154.904612 153.61108,156.437945 C154.61108,157.971279 155.344414,159.737945 155.81108,161.737945 C156.277747,163.737945 156.51108,165.837945 156.51108,168.037945 C156.51108,170.171279 156.277747,172.237945 155.81108,174.237945 C155.344414,176.237945 154.61108,178.004612 153.61108,179.537945 C152.61108,181.071279 151.36108,182.287945 149.86108,183.187945 C148.36108,184.087945 146.544414,184.537945 144.41108,184.537945 Z M203.61108,195.137945 C209.477747,195.137945 214.477747,193.804612 218.61108,191.137945 C222.744414,188.471279 225.81108,184.037945 227.81108,177.837945 L215.31108,177.837945 C214.844414,179.437945 213.577747,180.954612 211.51108,182.387945 C209.444414,183.821279 206.977747,184.537945 204.11108,184.537945 C200.11108,184.537945 197.044414,183.504612 194.91108,181.437945 C192.777747,179.371279 191.61108,176.037945 191.41108,171.437945 L228.71108,171.437945 C228.977747,167.437945 228.644414,163.604612 227.71108,159.937945 C226.777747,156.271279 225.26108,153.004612 223.16108,150.137945 C221.06108,147.271279 218.377747,144.987945 215.11108,143.287945 C211.844414,141.587945 208.01108,140.737945 203.61108,140.737945 C199.677747,140.737945 196.094414,141.437945 192.86108,142.837945 C189.627747,144.237945 186.844414,146.154612 184.51108,148.587945 C182.177747,151.021279 180.377747,153.904612 179.11108,157.237945 C177.844414,160.571279 177.21108,164.171279 177.21108,168.037945 C177.21108,172.037945 177.827747,175.704612 179.06108,179.037945 C180.294414,182.371279 182.044414,185.237945 184.31108,187.637945 C186.577747,190.037945 189.344414,191.887945 192.61108,193.187945 C195.877747,194.487945 199.544414,195.137945 203.61108,195.137945 Z M214.51108,162.437945 L191.41108,162.437945 C191.477747,161.437945 191.694414,160.304612 192.06108,159.037945 C192.427747,157.771279 193.06108,156.571279 193.96108,155.437945 C194.86108,154.304612 196.06108,153.354612 197.56108,152.587945 C199.06108,151.821279 200.944414,151.437945 203.21108,151.437945 C206.677747,151.437945 209.26108,152.371279 210.96108,154.237945 C212.66108,156.104612 213.844414,158.837945 214.51108,162.437945 Z M251.71108,193.837945 L251.71108,122.437945 L237.51108,122.437945 L237.51108,193.837945 L251.71108,193.837945 Z M290.31108,195.437945 C295.177747,195.437945 299.46108,194.871279 303.16108,193.737945 C306.86108,192.604612 309.96108,191.021279 312.46108,188.987945 C314.96108,186.954612 316.844414,184.537945 318.11108,181.737945 C319.377747,178.937945 320.01108,175.904612 320.01108,172.637945 C320.01108,168.637945 319.16108,165.354612 317.46108,162.787945 C315.76108,160.221279 313.744414,158.171279 311.41108,156.637945 C309.077747,155.104612 306.727747,153.987945 304.36108,153.287945 C301.994414,152.587945 300.144414,152.104612 298.81108,151.837945 C294.344414,150.704612 290.727747,149.771279 287.96108,149.037945 C285.194414,148.304612 283.027747,147.571279 281.46108,146.837945 C279.894414,146.104612 278.844414,145.304612 278.31108,144.437945 C277.777747,143.571279 277.51108,142.437945 277.51108,141.037945 C277.51108,139.504612 277.844414,138.237945 278.51108,137.237945 C279.177747,136.237945 280.027747,135.404612 281.06108,134.737945 C282.094414,134.071279 283.244414,133.604612 284.51108,133.337945 C285.777747,133.071279 287.044414,132.937945 288.31108,132.937945 C290.244414,132.937945 292.027747,133.104612 293.66108,133.437945 C295.294414,133.771279 296.744414,134.337945 298.01108,135.137945 C299.277747,135.937945 300.294414,137.037945 301.06108,138.437945 C301.827747,139.837945 302.277747,141.604612 302.41108,143.737945 L317.61108,143.737945 C317.61108,139.604612 316.827747,136.087945 315.26108,133.187945 C313.694414,130.287945 311.577747,127.904612 308.91108,126.037945 C306.244414,124.171279 303.194414,122.821279 299.76108,121.987945 C296.327747,121.154612 292.744414,120.737945 289.01108,120.737945 C285.81108,120.737945 282.61108,121.171279 279.41108,122.037945 C276.21108,122.904612 273.344414,124.237945 270.81108,126.037945 C268.277747,127.837945 266.227747,130.087945 264.66108,132.787945 C263.094414,135.487945 262.31108,138.671279 262.31108,142.337945 C262.31108,145.604612 262.927747,148.387945 264.16108,150.687945 C265.394414,152.987945 267.01108,154.904612 269.01108,156.437945 C271.01108,157.971279 273.277747,159.221279 275.81108,160.187945 C278.344414,161.154612 280.944414,161.971279 283.61108,162.637945 C286.21108,163.371279 288.777747,164.037945 291.31108,164.637945 C293.844414,165.237945 296.11108,165.937945 298.11108,166.737945 C300.11108,167.537945 301.727747,168.537945 302.96108,169.737945 C304.194414,170.937945 304.81108,172.504612 304.81108,174.437945 C304.81108,176.237945 304.344414,177.721279 303.41108,178.887945 C302.477747,180.054612 301.31108,180.971279 299.91108,181.637945 C298.51108,182.304612 297.01108,182.754612 295.41108,182.987945 C293.81108,183.221279 292.31108,183.337945 290.91108,183.337945 C288.844414,183.337945 286.844414,183.087945 284.91108,182.587945 C282.977747,182.087945 281.294414,181.321279 279.86108,180.287945 C278.427747,179.254612 277.277747,177.904612 276.41108,176.237945 C275.544414,174.571279 275.11108,172.537945 275.11108,170.137945 L259.91108,170.137945 C259.844414,174.537945 260.644414,178.337945 262.31108,181.537945 C263.977747,184.737945 266.227747,187.371279 269.06108,189.437945 C271.894414,191.504612 275.16108,193.021279 278.86108,193.987945 C282.56108,194.954612 286.377747,195.437945 290.31108,195.437945 Z M335.51108,211.937945 C340.377747,211.937945 344.177747,211.037945 346.91108,209.237945 C349.644414,207.437945 351.777747,204.437945 353.31108,200.237945 L374.91108,142.137945 L360.21108,142.137945 L348.91108,177.537945 L348.71108,177.537945 L337.01108,142.137945 L321.91108,142.137945 L340.01108,190.637945 C340.41108,191.637945 340.61108,192.704612 340.61108,193.837945 C340.61108,195.371279 340.16108,196.771279 339.26108,198.037945 C338.36108,199.304612 336.977747,200.037945 335.11108,200.237945 C333.71108,200.304612 332.31108,200.271279 330.91108,200.137945 C329.51108,200.004612 328.144414,199.871279 326.81108,199.737945 L326.81108,211.437945 C328.277747,211.571279 329.727747,211.687945 331.16108,211.787945 C332.594414,211.887945 334.044414,211.937945 335.51108,211.937945 Z M393.91108,193.837945 L393.91108,166.737945 C393.91108,161.471279 394.777747,157.687945 396.51108,155.387945 C398.244414,153.087945 401.044414,151.937945 404.91108,151.937945 C408.31108,151.937945 410.677747,152.987945 412.01108,155.087945 C413.344414,157.187945 414.01108,160.371279 414.01108,164.637945 L414.01108,193.837945 L428.21108,193.837945 L428.21108,162.037945 C428.21108,158.837945 427.927747,155.921279 427.36108,153.287945 C426.794414,150.654612 425.81108,148.421279 424.41108,146.587945 C423.01108,144.754612 421.094414,143.321279 418.66108,142.287945 C416.227747,141.254612 413.11108,140.737945 409.31108,140.737945 C406.31108,140.737945 403.377747,141.421279 400.51108,142.787945 C397.644414,144.154612 395.31108,146.337945 393.51108,149.337945 L393.21108,149.337945 L393.21108,142.137945 L379.71108,142.137945 L379.71108,193.837945 L393.91108,193.837945 Z M463.51108,195.137945 C470.377747,195.137945 476.01108,193.337945 480.41108,189.737945 C484.81108,186.137945 487.477747,180.904612 488.41108,174.037945 L474.71108,174.037945 C474.244414,177.237945 473.094414,179.787945 471.26108,181.687945 C469.427747,183.587945 466.81108,184.537945 463.41108,184.537945 C461.21108,184.537945 459.344414,184.037945 457.81108,183.037945 C456.277747,182.037945 455.06108,180.754612 454.16108,179.187945 C453.26108,177.621279 452.61108,175.871279 452.21108,173.937945 C451.81108,172.004612 451.61108,170.104612 451.61108,168.237945 C451.61108,166.304612 451.81108,164.354612 452.21108,162.387945 C452.61108,160.421279 453.294414,158.621279 454.26108,156.987945 C455.227747,155.354612 456.477747,154.021279 458.01108,152.987945 C459.544414,151.954612 461.444414,151.437945 463.71108,151.437945 C469.777747,151.437945 473.277747,154.404612 474.21108,160.337945 L488.11108,160.337945 C487.91108,157.004612 487.11108,154.121279 485.71108,151.687945 C484.31108,149.254612 482.494414,147.221279 480.26108,145.587945 C478.027747,143.954612 475.494414,142.737945 472.66108,141.937945 C469.827747,141.137945 466.877747,140.737945 463.81108,140.737945 C459.61108,140.737945 455.877747,141.437945 452.61108,142.837945 C449.344414,144.237945 446.577747,146.187945 444.31108,148.687945 C442.044414,151.187945 440.327747,154.154612 439.16108,157.587945 C437.994414,161.021279 437.41108,164.737945 437.41108,168.737945 C437.41108,172.604612 438.044414,176.154612 439.31108,179.387945 C440.577747,182.621279 442.344414,185.404612 444.61108,187.737945 C446.877747,190.071279 449.627747,191.887945 452.86108,193.187945 C456.094414,194.487945 459.644414,195.137945 463.51108,195.137945 Z" id="path-1"></path>
        <rect id="path-3" x="2.72188559e-14" y="0" width="131.941959" height="32" rx="10"></rect>
        <filter x="-0.4%" y="-4.7%" width="100.8%" height="106.2%" filterUnits="objectBoundingBox" id="filter-4">
            <feOffset dx="0" dy="-1" in="SourceAlpha" result="shadowOffsetOuter1"></feOffset>
            <feColorMatrix values="0 0 0 0 0.105882353   0 0 0 0 0.121568627   0 0 0 0 0.137254902  0 0 0 0.12 0" type="matrix" in="shadowOffsetOuter1"></feColorMatrix>
        </filter>
        <filter x="-4.2%" y="-20.3%" width="108.3%" height="137.5%" filterUnits="objectBoundingBox" id="filter-5">
            <feGaussianBlur stdDeviation="1.5" in="SourceAlpha" result="shadowBlurInner1"></feGaussianBlur>
            <feOffset dx="0" dy="-8" in="shadowBlurInner1" result="shadowOffsetInner1"></feOffset>
            <feComposite in="shadowOffsetInner1" in2="SourceAlpha" operator="arithmetic" k2="-1" k3="1" result="shadowInnerInner1"></feComposite>
            <feColorMatrix values="0 0 0 0 0.105882353   0 0 0 0 0.121568627   0 0 0 0 0.137254902  0 0 0 0.5 0" type="matrix" in="shadowInnerInner1"></feColorMatrix>
        </filter>
    </defs>
    <g id="ProductHunt-cover-Copy" stroke="none" stroke-width="1" fill="none" fill-rule="evenodd">
        <rect id="Rectangle" fill="#F9FAFB" x="0" y="0" width="900" height="450"></rect>
        <rect id="Rectangle" fill="#0E9F6E" transform="translate(513.500000, 409.500000) rotate(-16.000000) translate(-513.500000, -409.500000) " x="-11" y="195" width="1049" height="429"></rect>
        <g id="Group-2" transform="translate(104.000000, 98.000000)">
            <text id="The-best-way-to-sync" font-family="HelveticaNeue-Bold, Helvetica Neue" font-size="35" font-weight="bold" fill="#F9FAFB">
                <tspan x="0" y="246">The best way to sync labels.</tspan>
            </text>
            <g id="Rectangle">
                <mask id="mask-2" fill="white">
                    <use xlink:href="#path-1"></use>
                </mask>
                <use id="Mask" fill="#F9FAFB" fill-rule="nonzero" xlink:href="#path-1"></use>
                <rect fill="#000000" mask="url(#mask-2)" transform="translate(125.500000, -29.000000) rotate(-16.000000) translate(-125.500000, 29.000000) " x="-435" y="-224" width="1121" height="390"></rect>
            </g>
        </g>
        <g id="LabelSync-Logo" transform="translate(721.000000, 378.000000)">
            <g id="Logo">
                <g id="Rectangle">
                    <use fill="black" fill-opacity="1" filter="url(#filter-4)" xlink:href="#path-3"></use>
                    <use fill="#000000" fill-rule="evenodd" xlink:href="#path-3"></use>
                    <use fill="black" fill-opacity="1" filter="url(#filter-5)" xlink:href="#path-3"></use>
                </g>
                <path d="M12.4498186,22.72 L12.4498186,5.584 L9.05006046,5.584 L9.05006046,22.72 L12.4498186,22.72 Z M18.8183797,23.032 C19.5845224,23.032 20.3347037,22.92 21.0689238,22.696 C21.8031439,22.472 22.4415961,22.08 22.9842805,21.52 C23.0002418,21.728 23.0281741,21.932 23.0680774,22.132 C23.1079807,22.332 23.1598549,22.528 23.2237001,22.72 L23.2237001,22.72 L26.6713422,22.72 C26.5117291,22.464 26.4,22.08 26.3361548,21.568 C26.2723096,21.056 26.2403869,20.52 26.2403869,19.96 L26.2403869,19.96 L26.2403869,13.504 C26.2403869,12.752 26.0727932,12.148 25.7376058,11.692 C25.4024184,11.236 24.9714631,10.88 24.44474,10.624 C23.9180169,10.368 23.3354293,10.196 22.696977,10.108 C22.0585248,10.02 21.4280532,9.976 20.8055623,9.976 C20.1192261,9.976 19.4368803,10.044 18.7585248,10.18 C18.0801693,10.316 17.4696493,10.544 16.9269649,10.864 C16.3842805,11.184 15.937364,11.608 15.5862152,12.136 C15.2350665,12.664 15.0355502,13.328 14.9876663,14.128 L14.9876663,14.128 L18.3874244,14.128 C18.4512696,13.456 18.6747279,12.976 19.0577993,12.688 C19.4408706,12.4 19.9675937,12.256 20.6379686,12.256 C20.9412334,12.256 21.2245466,12.276 21.4879081,12.316 C21.7512696,12.356 21.9827086,12.436 22.1822249,12.556 C22.3817412,12.676 22.5413543,12.844 22.6610641,13.06 C22.7807739,13.276 22.8406288,13.568 22.8406288,13.936 C22.8565901,14.288 22.7528416,14.556 22.5293833,14.74 C22.305925,14.924 22.0026602,15.064 21.6195889,15.16 C21.2365175,15.256 20.7975816,15.328 20.3027811,15.376 C19.8079807,15.424 19.3051995,15.488 18.7944377,15.568 C18.2836759,15.648 17.7769045,15.756 17.2741233,15.892 C16.7713422,16.028 16.3244256,16.232 15.9333736,16.504 C15.5423216,16.776 15.2230955,17.14 14.9756953,17.596 C14.728295,18.052 14.6045949,18.632 14.6045949,19.336 C14.6045949,19.976 14.7123337,20.528 14.9278114,20.992 C15.143289,21.456 15.4425635,21.84 15.8256348,22.144 C16.2087062,22.448 16.6556227,22.672 17.1663845,22.816 C17.6771463,22.96 18.2278114,23.032 18.8183797,23.032 Z M20.0873035,20.776 C19.8159613,20.776 19.5525998,20.752 19.2972189,20.704 C19.041838,20.656 18.8183797,20.572 18.626844,20.452 C18.4353083,20.332 18.2836759,20.168 18.1719468,19.96 C18.0602177,19.752 18.0043531,19.496 18.0043531,19.192 C18.0043531,18.872 18.0602177,18.608 18.1719468,18.4 C18.2836759,18.192 18.431318,18.02 18.614873,17.884 C18.7984281,17.748 19.0139057,17.64 19.2613059,17.56 C19.5087062,17.48 19.7600967,17.416 20.0154776,17.368 C20.2868198,17.32 20.558162,17.28 20.8295042,17.248 C21.1008464,17.216 21.3602177,17.176 21.6076179,17.128 C21.8550181,17.08 22.0864571,17.02 22.3019347,16.948 C22.5174123,16.876 22.696977,16.776 22.8406288,16.648 L22.8406288,16.648 L22.8406288,17.92 C22.8406288,18.112 22.8206771,18.368 22.7807739,18.688 C22.7408706,19.008 22.6331318,19.324 22.4575574,19.636 C22.2819831,19.948 22.0106409,20.216 21.6435308,20.44 C21.2764208,20.664 20.7576784,20.776 20.0873035,20.776 Z M36.2241838,23.032 C36.8466747,23.032 37.461185,22.904 38.0677146,22.648 C38.6742443,22.392 39.220919,22 39.7077388,21.472 C40.1945586,20.944 40.589601,20.268 40.8928658,19.444 C41.1961306,18.62 41.347763,17.64 41.347763,16.504 C41.347763,15.368 41.1961306,14.388 40.8928658,13.564 C40.589601,12.74 40.1945586,12.064 39.7077388,11.536 C39.220919,11.008 38.6742443,10.616 38.0677146,10.36 C37.461185,10.104 36.8466747,9.976 36.2241838,9.976 C35.4580411,9.976 34.7198307,10.124 34.0095526,10.42 C33.2992745,10.716 32.7366385,11.184 32.3216445,11.824 L32.2737606,11.824 L32.2737606,5.584 L28.8740024,5.584 L28.8740024,22.72 L32.1061669,22.72 L32.1061669,21.136 L32.1540508,21.136 C32.5211608,21.824 33.0638452,22.312 33.782104,22.6 C34.5003628,22.888 35.3143894,23.032 36.2241838,23.032 Z M35.0510278,20.488 C34.5562273,20.488 34.1252721,20.38 33.758162,20.164 C33.391052,19.948 33.0877872,19.656 32.8483676,19.288 C32.608948,18.92 32.4333736,18.496 32.3216445,18.016 C32.2099154,17.536 32.1540508,17.04 32.1540508,16.528 C32.1540508,16 32.2099154,15.496 32.3216445,15.016 C32.4333736,14.536 32.608948,14.112 32.8483676,13.744 C33.0877872,13.376 33.391052,13.084 33.758162,12.868 C34.1252721,12.652 34.5562273,12.544 35.0510278,12.544 C35.5617896,12.544 35.9967352,12.652 36.3558646,12.868 C36.714994,13.084 37.0142684,13.376 37.253688,13.744 C37.4931076,14.112 37.668682,14.536 37.7804111,15.016 C37.8921403,15.496 37.9480048,16 37.9480048,16.528 C37.9480048,17.04 37.8921403,17.536 37.7804111,18.016 C37.668682,18.496 37.4931076,18.92 37.253688,19.288 C37.0142684,19.656 36.714994,19.948 36.3558646,20.164 C35.9967352,20.38 35.5617896,20.488 35.0510278,20.488 Z M49.2246675,23.032 C50.6292624,23.032 51.8263603,22.712 52.8159613,22.072 C53.8055623,21.432 54.5397823,20.368 55.0186215,18.88 L52.0258767,18.88 C51.9141475,19.264 51.6108827,19.628 51.1160822,19.972 C50.6212817,20.316 50.0307134,20.488 49.3443773,20.488 C48.3866989,20.488 47.6524788,20.24 47.141717,19.744 C46.6309553,19.248 46.3516324,18.448 46.3037485,17.344 L55.2340992,17.344 C55.2979444,16.384 55.2181378,15.464 54.9946796,14.584 C54.7712213,13.704 54.4081016,12.92 53.9053204,12.232 C53.4025393,11.544 52.7600967,10.996 51.9779927,10.588 C51.1958888,10.18 50.2781137,9.976 49.2246675,9.976 C48.2829504,9.976 47.4250302,10.144 46.6509069,10.48 C45.8767836,10.816 45.210399,11.276 44.6517533,11.86 C44.0931076,12.444 43.6621524,13.136 43.3588875,13.936 C43.0556227,14.736 42.9039903,15.6 42.9039903,16.528 C42.9039903,17.488 43.0516324,18.368 43.3469166,19.168 C43.6422007,19.968 44.061185,20.656 44.6038694,21.232 C45.1465538,21.808 45.808948,22.252 46.591052,22.564 C47.373156,22.876 48.2510278,23.032 49.2246675,23.032 Z M51.834341,15.184 L46.3037485,15.184 C46.3197098,14.944 46.371584,14.672 46.4593712,14.368 C46.5471584,14.064 46.6987908,13.776 46.9142684,13.504 C47.1297461,13.232 47.4170496,13.004 47.776179,12.82 C48.1353083,12.636 48.5862152,12.544 49.1288996,12.544 C49.9588875,12.544 50.5773881,12.768 50.9844015,13.216 C51.3914148,13.664 51.6747279,14.32 51.834341,15.184 Z M60.7407497,22.72 L60.7407497,5.584 L57.3409915,5.584 L57.3409915,22.72 L60.7407497,22.72 Z M64.5954051,23.104 L71.2752116,5.176 L68.5458283,5.176 L61.8899637,23.104 L64.5954051,23.104 Z M77.5240629,23.032 C78.2263603,23.032 78.9166868,22.964 79.5950423,22.828 C80.2733978,22.692 80.8759371,22.456 81.4026602,22.12 C81.9293833,21.784 82.3563482,21.34 82.683555,20.788 C83.0107618,20.236 83.1743652,19.552 83.1743652,18.736 C83.1743652,18.16 83.062636,17.676 82.8391778,17.284 C82.6157195,16.892 82.3204353,16.564 81.9533253,16.3 C81.5862152,16.036 81.167231,15.824 80.6963724,15.664 C80.2255139,15.504 79.7426844,15.368 79.2478839,15.256 C78.7690447,15.144 78.2981862,15.04 77.8353083,14.944 C77.3724305,14.848 76.9614268,14.74 76.6022975,14.62 C76.2431681,14.5 75.9518742,14.344 75.728416,14.152 C75.5049577,13.96 75.3932285,13.712 75.3932285,13.408 C75.3932285,13.152 75.4570738,12.948 75.5847642,12.796 C75.7124547,12.644 75.8680774,12.528 76.0516324,12.448 C76.2351874,12.368 76.4386941,12.316 76.6621524,12.292 C76.8856106,12.268 77.0931076,12.256 77.2846433,12.256 C77.8911729,12.256 78.417896,12.372 78.8648126,12.604 C79.3117291,12.836 79.5591294,13.28 79.6070133,13.936 L82.8391778,13.936 C82.7753325,13.168 82.5798065,12.532 82.2525998,12.028 C81.925393,11.524 81.5143894,11.12 81.0195889,10.816 C80.5247884,10.512 79.9621524,10.296 79.3316808,10.168 C78.7012092,10.04 78.050786,9.976 77.3804111,9.976 C76.7100363,9.976 76.0556227,10.036 75.4171705,10.156 C74.7787183,10.276 74.2041112,10.484 73.6933495,10.78 C73.1825877,11.076 72.771584,11.48 72.4603386,11.992 C72.1490931,12.504 71.9934704,13.16 71.9934704,13.96 C71.9934704,14.504 72.1051995,14.964 72.3286578,15.34 C72.5521161,15.716 72.8474002,16.028 73.2145103,16.276 C73.5816203,16.524 74.0006046,16.724 74.4714631,16.876 C74.9423216,17.028 75.4251511,17.16 75.9199516,17.272 C77.1330109,17.528 78.0787183,17.784 78.7570738,18.04 C79.4354293,18.296 79.774607,18.68 79.774607,19.192 C79.774607,19.496 79.7027811,19.748 79.5591294,19.948 C79.4154776,20.148 79.2359129,20.308 79.0204353,20.428 C78.8049577,20.548 78.5655381,20.636 78.3021765,20.692 C78.038815,20.748 77.7874244,20.776 77.5480048,20.776 C77.2128174,20.776 76.889601,20.736 76.5783555,20.656 C76.26711,20.576 75.9917775,20.452 75.7523579,20.284 C75.5129383,20.116 75.3174123,19.9 75.1657799,19.636 C75.0141475,19.372 74.9383313,19.056 74.9383313,18.688 L71.7061669,18.688 C71.7380895,19.52 71.9256348,20.212 72.2688029,20.764 C72.611971,21.316 73.0509069,21.76 73.5856106,22.096 C74.1203144,22.432 74.7308343,22.672 75.4171705,22.816 C76.1035067,22.96 76.8058041,23.032 77.5240629,23.032 Z M87.0050786,27.064 C88.1702539,27.064 89.0800484,26.848 89.7344619,26.416 C90.3888755,25.984 90.8996372,25.264 91.2667473,24.256 L96.4382104,10.312 L92.9187424,10.312 L90.2133011,18.808 L90.1654172,18.808 L87.364208,10.312 L83.7489722,10.312 L88.0824667,21.952 C88.1782346,22.192 88.2261185,22.448 88.2261185,22.72 C88.2261185,23.088 88.1183797,23.424 87.9029021,23.728 C87.6874244,24.032 87.3562273,24.208 86.9093108,24.256 C86.5741233,24.272 86.2389359,24.264 85.9037485,24.232 C85.5685611,24.2 85.2413543,24.168 84.9221282,24.136 L84.9221282,26.944 C85.2732769,26.976 85.6204353,27.004 85.9636034,27.028 C86.3067715,27.052 86.6539299,27.064 87.0050786,27.064 Z M100.987183,22.72 L100.987183,16.216 C100.987183,14.952 101.19468,14.044 101.609674,13.492 C102.024667,12.94 102.695042,12.664 103.620798,12.664 C104.434825,12.664 105.001451,12.916 105.320677,13.42 C105.639903,13.924 105.799516,14.688 105.799516,15.712 L105.799516,22.72 L109.199274,22.72 L109.199274,15.088 C109.199274,14.32 109.131439,13.62 108.995768,12.988 C108.860097,12.356 108.624667,11.82 108.28948,11.38 C107.954293,10.94 107.495405,10.596 106.912817,10.348 C106.33023,10.1 105.584039,9.976 104.674244,9.976 C103.955985,9.976 103.253688,10.14 102.567352,10.468 C101.881016,10.796 101.32237,11.32 100.891415,12.04 L100.819589,12.04 L100.819589,10.312 L97.5874244,10.312 L97.5874244,22.72 L100.987183,22.72 Z M117.650786,23.032 C119.2948,23.032 120.643531,22.6 121.696977,21.736 C122.750423,20.872 123.388875,19.616 123.612334,17.968 L120.332285,17.968 C120.220556,18.736 119.945224,19.348 119.506288,19.804 C119.067352,20.26 118.440871,20.488 117.626844,20.488 C117.100121,20.488 116.653204,20.368 116.286094,20.128 C115.918984,19.888 115.62769,19.58 115.412213,19.204 C115.196735,18.828 115.041112,18.408 114.945345,17.944 C114.849577,17.48 114.801693,17.024 114.801693,16.576 C114.801693,16.112 114.849577,15.644 114.945345,15.172 C115.041112,14.7 115.204716,14.268 115.436155,13.876 C115.667594,13.484 115.966868,13.164 116.333978,12.916 C116.701088,12.668 117.155985,12.544 117.69867,12.544 C119.151149,12.544 119.989117,13.256 120.212576,14.68 L123.540508,14.68 C123.492624,13.88 123.301088,13.188 122.965901,12.604 C122.630713,12.02 122.195768,11.532 121.661064,11.14 C121.12636,10.748 120.519831,10.456 119.841475,10.264 C119.16312,10.072 118.456832,9.976 117.722612,9.976 C116.71705,9.976 115.823216,10.144 115.041112,10.48 C114.259008,10.816 113.596614,11.284 113.05393,11.884 C112.511245,12.484 112.100242,13.196 111.820919,14.02 C111.541596,14.844 111.401935,15.736 111.401935,16.696 C111.401935,17.624 111.553567,18.476 111.856832,19.252 C112.160097,20.028 112.583071,20.696 113.125756,21.256 C113.66844,21.816 114.326844,22.252 115.100967,22.564 C115.875091,22.876 116.72503,23.032 117.650786,23.032 Z" id="label/sync" fill="#FFFFFF" fill-rule="nonzero"></path>
            </g>
        </g>
    </g>
</svg>